Coordinates
version=1
nRows=19
nColumns=18
inDegrees=yes

Units are S.I. units (second, meters, Newtons, ...)
Angles are in degrees.

endheader
time	pelvis_tilt	pelvis_list	pelvis_rotation	pelvis_tx	pelvis_ty	pelvis_tz	hip_flexion_r	hip_adduction_r	hip_rotation_r	knee_angle_r	ankle_angle_r	hip_flexion_l	hip_adduction_l	hip_rotation_l	knee_angle_l	ankle_angle_l	lumbar_extension
      2.39000000	     -6.47183603	      7.55043512	      0.83117511	      0.61063003	      0.80351571	      0.22939373	     48.96415628	     -7.75144899	      0.00000000	    -48.43053212	     26.87201253	      2.08466238	     14.75595128	      0.00000000	    -43.38734030	     35.47441119	     -5.00000214
      2.40000000	     -6.36196324	      7.41770649	      0.94818092	      0.62344919	      0.80304289	      0.23169751	     49.00773768	     -7.51711874	      0.00000000	    -50.43155458	     27.35558491	      2.28389147	     14.39000369	      0.00000000	    -45.46885278	     33.08633902	     -5.00000214
      2.41000000	     -6.33977362	      7.12302084	      1.21869573	      0.63561621	      0.80253305	      0.23453346	     48.98114817	     -7.07524747	      0.00000000	    -52.18593417	     28.04999930	      2.96151886	     13.75535751	      0.00000000	    -48.09608489	     30.22569017	     -5.00000214
      2.42000000	     -6.36721907	      6.67579924	      1.57063624	      0.64728711	      0.80201642	      0.23795732	     48.81424912	     -6.39514694	      0.00000000	    -53.62788465	     28.88463282	      3.99228976	     12.86716125	      0.00000000	    -51.07999268	     26.88877662	     -5.00000214
      2.43000000	     -6.45554664	      6.12822845	      1.92523683	      0.65834730	      0.80142547	      0.24182927	     48.55428758	     -5.52005563	      0.00000000	    -54.73946384	     29.78969396	      5.35364943	     11.81736474	      0.00000000	    -54.30144396	     23.23940401	     -5.00000214
      2.44000000	     -6.58751442	      5.58378043	      2.20621286	      0.66891389	      0.80089110	      0.24572023	     48.23152307	     -4.60228353	      0.00000000	    -55.57628931	     30.55710020	      6.92243792	     10.79357144	      0.00000000	    -57.52214025	     19.14629948	     -5.00000214
      2.45000000	     -6.84018476	      4.98036685	      2.42721756	      0.67861616	      0.80022991	      0.24998678	     47.95179139	     -3.55174607	      0.00000000	    -56.12630035	     31.59358626	      8.84689291	      9.68826981	      0.00000000	    -60.88265689	     15.87253732	     -5.00000214
      2.46000000	     -7.14794230	      4.43876895	      2.56462674	      0.68778919	      0.79973833	      0.25400934	     47.66571647	     -2.57549092	      0.00000000	    -56.45969550	     32.43502020	     10.91954864	      8.71818797	      0.00000000	    -64.10252432	     12.67350084	     -5.00000214
      2.47000000	     -7.54239945	      3.86458646	      2.66096835	      0.69630947	      0.79930593	      0.25819340	     47.42119942	     -1.54151694	      0.00000000	    -56.59819500	     33.30833718	     13.22153018	      7.72010795	      0.00000000	    -67.30067744	     10.77043629	     -5.00000214
      2.48000000	     -8.01283796	      3.33567289	      2.74909985	      0.70424414	      0.79896414	      0.26212218	     47.24157435	     -0.59525404	      0.00000000	    -56.60282869	     34.10849959	     15.70716951	      6.81920846	      0.00000000	    -70.39995552	     10.10276073	     -5.00000214
      2.49000000	     -8.42775174	      2.62377967	      2.80246236	      0.71228614	      0.79907173	      0.26693480	     46.81599474	      0.66454464	      0.00000000	    -56.23989714	     34.89236992	     18.17026605	      5.57257243	      0.00000000	    -73.30613595	      9.56194036	     -5.00000214
      2.50000000	     -8.82759525	      1.95416677	      2.83704481	      0.72028718	      0.79929816	      0.27151140	     46.39833938	      1.85732106	      0.00000000	    -55.86677013	     35.61579665	     20.62717865	      4.38520164	      0.00000000	    -75.97589265	      9.75375165	     -5.00000214
      2.51000000	     -9.14027194	      1.26074401	      2.83513585	      0.72866334	      0.79976033	      0.27618900	     45.84214800	      3.10842454	      0.00000000	    -55.40533546	     36.35434530	     22.94557540	      3.12062987	      0.00000000	    -78.35231585	     10.32474401	     -5.00000214
      2.52000000	     -9.40336232	      0.59742958	      2.81525239	      0.73727502	      0.80032834	      0.28065128	     45.25261752	      4.31476942	      0.00000000	    -54.95818551	     37.01554881	     25.18453372	      1.88531957	      0.00000000	    -80.43981293	     10.92304226	     -5.00000214
      2.53000000	     -9.51722940	     -0.08292800	      2.72872515	      0.74662300	      0.80112607	      0.28521435	     44.45179666	      5.58970454	      0.00000000	    -54.47784232	     37.78788875	     27.14333200	      0.58015183	      0.00000000	    -82.18881368	     11.69444734	     -5.00000214
      2.54000000	     -9.59963805	     -0.68396940	      2.62344830	      0.75614395	      0.80193429	      0.28932553	     43.64975927	      6.73978899	      0.00000000	    -54.06070344	     38.43905686	     29.02768065	     -0.59155072	      0.00000000	    -83.64652526	     12.22988217	     -5.00000214
      2.55000000	     -9.63037296	     -1.22400760	      2.48349158	      0.76591509	      0.80277956	      0.29310004	     42.79622890	      7.80438003	      0.00000000	    -53.68034079	     39.11285655	     30.78982908	     -1.65659025	      0.00000000	    -84.82018562	     12.76442541	     -5.00000214
      2.56000000	     -9.66372359	     -1.67768180	      2.29725509	      0.77568438	      0.80355604	      0.29640878	     41.96557509	      8.73651644	      0.00000000	    -53.35575830	     39.70464832	     32.49894566	     -2.54919187	      0.00000000	    -85.72854233	     13.25020244	     -5.00000214
      2.57000000	     -9.64206776	     -2.12429948	      2.09739440	      0.78568863	      0.80442350	      0.29962106	     41.00093364	      9.65182616	      0.00000000	    -52.93255197	     40.34386115	     34.07447835	     -3.44700316	      0.00000000	    -86.34560739	     13.85160058	     -5.00000214
